# xmcd
#
# Track frame offsets: 
#        150
#        13357
#        26225
#        41772
#        54558
#        67108
#        82355
#        97533
#        112263
#        125134
#        137582
#        150793
#        163053
#        177669
#        189545
#        203405
#        217704
#        230582
#        243991
#        258049
#        272267
#        285989
#        299613
#        313999
#        326782
#
# Disc length: 4519 seconds
#
# Revision: 4
# Processed by: cddbd v1.5.2PL0 Copyright (c) Steve Scherf et al.
# Submitted via: ExactAudioCopyFreeDBPlugin 1.0
#
DISCID=7411a519
DTITLE=Carter Family, The - Carter Family 1927-1934 disc A
DYEAR=1928
DGENRE=Folklore
TTITLE0=Bury Me Under The Weeping Willow
TTITLE1=Little Log Cabin By The Sea
TTITLE2=Poor Orphan Child, The
TTITLE3=Storms Are On The Ocean, The
TTITLE4=Single Girl, Married Girl
TTITLE5=Wandering Boy, The
TTITLE6=Meet Me By The Moonlight, Alone
TTITLE7=Little Darling Pal Of Mine
TTITLE8=Keep On The Sunny Side
TTITLE9=Anchored In Love
TTITLE10=John Hardy Was A Desperate Little Man
TTITLE11=I Ain't Goin' To Work Tomorrow
TTITLE12=Will You Miss Me When I'm Gone
TTITLE13=River Of Jordan
TTITLE14=Chewing Gum
TTITLE15=Wildwood Flower
TTITLE16=I Have No-one To Love Me (But The Sailor On The Deep Blue Sea
TTITLE16=)
TTITLE17=Forsaken Love
TTITLE18=Sweet Fern
TTITLE19=My Clinch Mountain Home
TTITLE20=God Gave Noah The Rainbow Sign
TTITLE21=I'm Thinking Tonight Of My Blue Eyes
TTITLE22=Little Moses
TTITLE23=Lulu Wall
TTITLE24=Grave On The Green Hillside, The
EXTD=YEAR: 1927
EXTT0=
EXTT1=
EXTT2=
EXTT3=
EXTT4=
EXTT5=
EXTT6=
EXTT7=
EXTT8=
EXTT9=
EXTT10=
EXTT11=
EXTT12=
EXTT13=
EXTT14=
EXTT15=
EXTT16=
EXTT17=
EXTT18=
EXTT19=
EXTT20=
EXTT21=
EXTT22=
EXTT23=
EXTT24=
PLAYORDER=
